# xmcd
#
# Track frame offsets: 
#        150
#        16060
#        36588
#        52490
#        69543
#        89393
#        112365
#        126119
#        143338
#        159264
#
# Disc length: 2353 seconds
#
# Revision: 2
# Processed by: cddbd v1.5.2PL0 Copyright (c) Steve Scherf et al.
# Submitted via: ExactAudioCopyFreeDBPlugin 1.0
#
DISCID=8c092f0a
DTITLE=薛岳 and 幻影合唱团 - 不要在街上吻我
DYEAR=1986
DGENRE=pop
TTITLE0=不要在街上吻我
TTITLE1=最后一次说再见
TTITLE2=不必再回头
TTITLE3=早晚
TTITLE4=需要你baby
TTITLE5=海拔三千
TTITLE6=成长
TTITLE7=空虚的眼眶
TTITLE8=越洋电话
TTITLE9=最后的夏季
EXTD=³ß°¨©Ô¶®
EXTT0=
EXTT1=
EXTT2=
EXTT3=
EXTT4=
EXTT5=
EXTT6=
EXTT7=
EXTT8=
EXTT9=
PLAYORDER=
